<svg xmlns="http://www.w3.org/2000/svg" viewBox="0 0 652.61 666.5"><defs><style>.cls-1{fill:#fff;}</style></defs><title>자산 4</title><g id="레이어_2" data-name="레이어 2"><g id="레이어_1-2" data-name="레이어 1"><path class="cls-1" d="M92.78,145.1a14.75,14.75,0,0,0-9.69,3.63,22.38,22.38,0,0,0-6,8.79V145.94H62.9v58.44H77.06V178.82A31.88,31.88,0,0,1,78.65,168a13.52,13.52,0,0,1,4.74-6.63,13.13,13.13,0,0,1,7.83-2.25,24.75,24.75,0,0,1,3.24.24q1.8.24,3.36.6l.24-14.16a18.66,18.66,0,0,0-2.55-.54A19.76,19.76,0,0,0,92.78,145.1Z"/><path class="cls-1" d="M112.1,202.22a25.28,25.28,0,0,0,13.62,3.84,28.39,28.39,0,0,0,12-2.43,22.7,22.7,0,0,0,8.61-6.72,21.41,21.41,0,0,0,4.23-9.93H136.28a8.73,8.73,0,0,1-3.6,5.76,12.1,12.1,0,0,1-7,1.92,12,12,0,0,1-7.35-2.16,13,13,0,0,1-4.38-5.94,23.73,23.73,0,0,1-1.47-8.58H150.2a37.63,37.63,0,0,0-.12-12.36,29,29,0,0,0-4.17-10.77,22.54,22.54,0,0,0-8.16-7.56,24.58,24.58,0,0,0-12-2.79,26,26,0,0,0-23.55,14.22,34.54,34.54,0,0,0-3.69,16.5,33.7,33.7,0,0,0,3.72,16.23A27.9,27.9,0,0,0,112.1,202.22Zm6.54-44.28a12.2,12.2,0,0,1,7.32-2.16,10.83,10.83,0,0,1,5.91,1.47,10.06,10.06,0,0,1,3.57,3.87,16.88,16.88,0,0,1,1.71,5.28,27.2,27.2,0,0,1,.31,3.9H112.6a20.23,20.23,0,0,1,1.48-6.48A13.4,13.4,0,0,1,118.64,157.94Z"/><path class="cls-1" d="M175.75,199.68a15.81,15.81,0,0,0,4.09,3.62,20.46,20.46,0,0,0,10.91,2.76,25.91,25.91,0,0,0,13.36-3.66,27.45,27.45,0,0,0,10-10.56A33.8,33.8,0,0,0,218,175.22q0-9.66-3.79-16.53a27.28,27.28,0,0,0-9.86-10.53,24.8,24.8,0,0,0-13-3.66A19.88,19.88,0,0,0,181,147.32a18.67,18.67,0,0,0-6.4,6.54l-1.34-7.68H161.6v86.64h14.15Zm6.61-40.84a14.32,14.32,0,0,1,14.18.54,14.6,14.6,0,0,1,5.25,6.21,22.15,22.15,0,0,1,1.92,9.63,20.17,20.17,0,0,1-2.27,10.11,15.41,15.41,0,0,1-5.73,5.94,14,14,0,0,1-13.38.48,11.61,11.61,0,0,1-6.58-10.89V171a14.6,14.6,0,0,1,1.81-7.47A12.07,12.07,0,0,1,182.36,158.84Z"/><path class="cls-1" d="M276.13,192.41q3.78-6.81,3.78-17.07,0-10.44-3.78-17.28A24.62,24.62,0,0,0,266,147.86a30.14,30.14,0,0,0-14.25-3.36,30.76,30.76,0,0,0-14.43,3.36,24.53,24.53,0,0,0-10.23,10.2q-3.78,6.84-3.78,17.28,0,10.26,3.78,17.07a25,25,0,0,0,10.23,10.23,30.32,30.32,0,0,0,14.43,3.42A29.72,29.72,0,0,0,266,202.64,25.05,25.05,0,0,0,276.13,192.41Zm-12.27-6.93a14,14,0,0,1-5.16,6.15,13.67,13.67,0,0,1-7.47,2.07,12.11,12.11,0,0,1-10-4.62q-3.69-4.62-3.69-13.74A24.84,24.84,0,0,1,239.44,165a13.32,13.32,0,0,1,12.75-8.28,11.88,11.88,0,0,1,9.93,4.68q3.63,4.68,3.63,13.92A24.09,24.09,0,0,1,263.86,185.48Z"/><path class="cls-1" d="M290.71,146.18v58.2h14.16v-26a32.13,32.13,0,0,1,1.86-11.73,15.26,15.26,0,0,1,5.13-7.05,12.61,12.61,0,0,1,7.53-2.34,10.71,10.71,0,0,1,8.16,3.3q3.12,3.3,3.12,9.78v34.08h14.16V170.3a35,35,0,0,0-2.43-13.56,19.58,19.58,0,0,0-7.26-9,21.27,21.27,0,0,0-12-3.21A20.18,20.18,0,0,0,311,148.22a21.38,21.38,0,0,0-6.4,7.68l-1.52-9.72Z"/><path class="cls-1" d="M362.32,149q-6.69,4.53-6.69,11.91a13.77,13.77,0,0,0,3.66,9.6,25.62,25.62,0,0,0,10.5,6.48l12.72,4.56a17.76,17.76,0,0,1,5.67,2.61,4.68,4.68,0,0,1,1.77,3.87,5.25,5.25,0,0,1-1.32,3.48,8.8,8.8,0,0,1-3.69,2.46,15.23,15.23,0,0,1-5.43.9q-5.58,0-8.82-2a7.22,7.22,0,0,1-3.42-6.3H354.19a17.33,17.33,0,0,0,3.3,10.47,20.2,20.2,0,0,0,9.27,6.66,40.36,40.36,0,0,0,14.43,2.31A29.88,29.88,0,0,0,394,203.48a22.32,22.32,0,0,0,8.61-6.69,14.28,14.28,0,0,0,3.09-8.73,12.15,12.15,0,0,0-3.72-9.12,27.52,27.52,0,0,0-10.44-5.88l-13.8-5.16q-7.08-2.1-7.08-6.24a5.24,5.24,0,0,1,2.55-4.29,11.91,11.91,0,0,1,7.05-1.83q5,0,7.44,1.68a6.06,6.06,0,0,1,2.76,4.56h13.32a15.75,15.75,0,0,0-6.27-12.39q-6.09-4.89-17.25-4.89T362.32,149Z"/><rect class="cls-1" x="417.97" y="145.94" width="14.16" height="58.44"/><path class="cls-1" d="M431.47,121.19a10.33,10.33,0,0,0-12.87,0,9.1,9.1,0,0,0,0,12.12,10.55,10.55,0,0,0,12.87,0,9,9,0,0,0,0-12.12Z"/><path class="cls-1" d="M469.78,147.59a18.38,18.38,0,0,0-5.49,5.73V122.06H450.13v82.32h9.24l3.47-10.17A20.65,20.65,0,0,0,469.9,203a17.47,17.47,0,0,0,10,3.06,24.46,24.46,0,0,0,13.44-3.87A27.26,27.26,0,0,0,503,191.33a39.28,39.28,0,0,0,.12-32.46,26.44,26.44,0,0,0-9.24-10.62A23.18,23.18,0,0,0,481,144.5,19.94,19.94,0,0,0,469.78,147.59Zm20.61,18.06a21.88,21.88,0,0,1,1.86,9.33,22.65,22.65,0,0,1-1.89,9.6,15.56,15.56,0,0,1-5.13,6.36,12.51,12.51,0,0,1-7.38,2.28,12.64,12.64,0,0,1-6.48-1.83,14.41,14.41,0,0,1-5.1-5.13,14.64,14.64,0,0,1-2-7.68v-7a15.06,15.06,0,0,1,1.89-7.77,13.13,13.13,0,0,1,4.95-4.92,13.31,13.31,0,0,1,6.6-1.71,13.09,13.09,0,0,1,7.53,2.22A14.92,14.92,0,0,1,490.39,165.65Z"/><rect class="cls-1" x="517.81" y="122.06" width="14.16" height="82.32"/><path class="cls-1" d="M556.45,202.22a25.3,25.3,0,0,0,13.62,3.84,28.39,28.39,0,0,0,12-2.43,22.7,22.7,0,0,0,8.61-6.72,21.41,21.41,0,0,0,4.23-9.93H580.63a8.73,8.73,0,0,1-3.6,5.76,13.58,13.58,0,0,1-14.31-.24,13.1,13.1,0,0,1-4.38-5.94,23.73,23.73,0,0,1-1.47-8.58h37.68a37.63,37.63,0,0,0-.12-12.36,29,29,0,0,0-4.17-10.77,22.46,22.46,0,0,0-8.16-7.56,24.58,24.58,0,0,0-12-2.79,26,26,0,0,0-23.55,14.22,34.54,34.54,0,0,0-3.69,16.5,33.82,33.82,0,0,0,3.72,16.23A27.9,27.9,0,0,0,556.45,202.22ZM563,157.94a12.2,12.2,0,0,1,7.32-2.16,10.83,10.83,0,0,1,5.91,1.47,10.06,10.06,0,0,1,3.57,3.87,16.88,16.88,0,0,1,1.71,5.28,27.2,27.2,0,0,1,.31,3.9H557a20.5,20.5,0,0,1,1.48-6.48A13.48,13.48,0,0,1,563,157.94Z"/><path class="cls-1" d="M193.53,60.88,203.73,27l10.42,33.87H228.8l19.53-59.2H233.1L221.59,42.13,210.81,4.8H197.22L186.44,42,174.93,1.68H159.1l19.65,59.2ZM174.18,2.68l12.26,43L198,5.8h12.09l11.53,40L233.85,2.68h13.09l-18.87,57.2H214.88L203.72,23.57,192.78,59.88h-13.3l-19-57.2Z"/><path class="cls-1" d="M262.31,58.64a25.88,25.88,0,0,0,13.88,3.92,28.89,28.89,0,0,0,12.21-2.48,23.22,23.22,0,0,0,8.8-6.86,22,22,0,0,0,4.33-10.16l.09-.58H286.35l-.09.4a8.28,8.28,0,0,1-3.39,5.45,11.67,11.67,0,0,1-6.68,1.83,11.55,11.55,0,0,1-7.05-2.06,12.7,12.7,0,0,1-4.21-5.72,23,23,0,0,1-1.43-7.9h37.6l.07-.43a38.61,38.61,0,0,0-.12-12.52,29.61,29.61,0,0,0-4.25-11,23,23,0,0,0-8.33-7.73A25.23,25.23,0,0,0,276.19,0a26.51,26.51,0,0,0-24,14.48,35.33,35.33,0,0,0-3.75,16.74,34.55,34.55,0,0,0,3.78,16.47A28.63,28.63,0,0,0,262.31,58.64ZM253.09,15a25.47,25.47,0,0,1,23.1-14A24.19,24.19,0,0,1,288,3.73a22.06,22.06,0,0,1,8,7.39,28.49,28.49,0,0,1,4.1,10.59,37.08,37.08,0,0,1,.18,11.77H262.5V34a24.39,24.39,0,0,0,1.5,8.76,13.62,13.62,0,0,0,4.55,6.16,12.5,12.5,0,0,0,7.64,2.26,12.67,12.67,0,0,0,7.25-2,9.14,9.14,0,0,0,3.72-5.67h13.28a20.89,20.89,0,0,1-4,9.12A22.25,22.25,0,0,1,288,59.18a28.1,28.1,0,0,1-11.8,2.38,24.89,24.89,0,0,1-13.35-3.77,27.38,27.38,0,0,1-9.73-10.58,33.55,33.55,0,0,1-3.66-16A34.16,34.16,0,0,1,253.09,15Z"/><path class="cls-1" d="M288.44,26.3a27.51,27.51,0,0,0-.32-4,17.58,17.58,0,0,0-1.76-5.43,10.6,10.6,0,0,0-3.75-4.06,11.33,11.33,0,0,0-6.18-1.55,12.78,12.78,0,0,0-7.61,2.25,14.07,14.07,0,0,0-4.73,6.1,21.34,21.34,0,0,0-1.51,6.63l0,.54h25.9Zm-24.82-.5A19.66,19.66,0,0,1,265,20a12.88,12.88,0,0,1,4.39-5.66,11.76,11.76,0,0,1,7-2.07,10.46,10.46,0,0,1,5.65,1.39,9.66,9.66,0,0,1,3.39,3.68,16.53,16.53,0,0,1,1.66,5.13,25.92,25.92,0,0,1,.3,3.32Z"/><path class="cls-1" d="M365.91,35.29a48.18,48.18,0,0,0-7.4-.61A17,17,0,0,0,350,36.61c-2.31,1.33-3.49,3.59-3.49,6.73a7.73,7.73,0,0,0,2.81,5.95c1.85,1.64,4.79,2.47,8.73,2.47a14.22,14.22,0,0,0,7.71-2,13.65,13.65,0,0,0,4.82-5,12.35,12.35,0,0,0,1.65-6V36.69l-.36-.11A46.13,46.13,0,0,0,365.91,35.29Zm5.3,3.49a11.45,11.45,0,0,1-1.52,5.52,12.83,12.83,0,0,1-4.48,4.62A13.33,13.33,0,0,1,358,50.76c-3.69,0-6.41-.75-8.06-2.21a6.68,6.68,0,0,1-2.48-5.21c0-2.79,1-4.71,3-5.87a16.1,16.1,0,0,1,8-1.79,49.35,49.35,0,0,1,12.7,1.76Z"/><path class="cls-1" d="M364.69,26.77a53.46,53.46,0,0,0-9.06-.73A38.5,38.5,0,0,0,342.87,28a18.11,18.11,0,0,0-8.48,5.8,15.23,15.23,0,0,0-3,9.58A18.37,18.37,0,0,0,334,52.83a18.79,18.79,0,0,0,7.73,7.06,27.52,27.52,0,0,0,12.74,2.67,19.17,19.17,0,0,0,17.62-9.74l1,8.06h13.3V23.3c0-5.31-1.07-9.74-3.19-13.16a19.3,19.3,0,0,0-9-7.67A33.77,33.77,0,0,0,360.79,0a47.07,47.07,0,0,0-14.46,2,18.8,18.8,0,0,0-9.39,6.3,17.8,17.8,0,0,0-3.29,11.07v.5h16.48v-.5a7.26,7.26,0,0,1,1.26-4.3A8.15,8.15,0,0,1,355,12.3a15.41,15.41,0,0,1,5.75-1c3.79,0,6.5.93,8,2.76s2.37,4.8,2.37,8.74v5.35C369,27.6,366.81,27.13,364.69,26.77Zm4.92-13.33c-1.76-2.07-4.72-3.12-8.82-3.12a16.33,16.33,0,0,0-6.12,1.06,9,9,0,0,0-4.09,3.08,7.89,7.89,0,0,0-1.43,4.38H334.66a16.65,16.65,0,0,1,3.07-10,17.94,17.94,0,0,1,8.91-5.95A46.29,46.29,0,0,1,360.79,1a32.76,32.76,0,0,1,13,2.39,18.41,18.41,0,0,1,8.53,7.27c2,3.27,3,7.52,3,12.64V59.88H374l-1.32-10.4L371.9,51a19.38,19.38,0,0,1-6.38,7.49,19.1,19.1,0,0,1-11.09,3.09A26.63,26.63,0,0,1,342.15,59a18,18,0,0,1-7.33-6.68,17.5,17.5,0,0,1-2.45-9,14.22,14.22,0,0,1,2.81-9,17,17,0,0,1,8-5.48A37.6,37.6,0,0,1,355.63,27a53.56,53.56,0,0,1,8.89.71c2.3.39,4.68.92,7.07,1.56l.62.16V22.82C372.21,18.64,371.34,15.48,369.61,13.44Z"/><path class="cls-1" d="M415.29,34.82a31.68,31.68,0,0,1,1.56-10.63,13.11,13.11,0,0,1,4.56-6.39A12.72,12.72,0,0,1,429,15.64a24,24,0,0,1,3.18.24,32.28,32.28,0,0,1,3.31.59l.6.14.26-15.17-.37-.1a19.71,19.71,0,0,0-2.62-.56,20.81,20.81,0,0,0-2.8-.18,15.3,15.3,0,0,0-10,3.75,21.32,21.32,0,0,0-5.21,6.88V1.44H400.13V60.88h15.16Zm-1,25.06H401.13V2.44h13.16V13.52l1,.19a22.18,22.18,0,0,1,5.89-8.6,14.35,14.35,0,0,1,9.37-3.51,20.28,20.28,0,0,1,2.66.17,19.42,19.42,0,0,1,2.12.43l-.23,13.16c-.88-.18-1.82-.34-2.8-.48a26,26,0,0,0-3.31-.24A13.71,13.71,0,0,0,420.83,17a14.16,14.16,0,0,0-4.92,6.87,32.63,32.63,0,0,0-1.62,11Z"/><path class="cls-1" d="M475.69,26.3a26.07,26.07,0,0,0-.32-4,17.06,17.06,0,0,0-1.76-5.43,10.5,10.5,0,0,0-3.74-4.06,11.35,11.35,0,0,0-6.18-1.55,12.78,12.78,0,0,0-7.61,2.25,14,14,0,0,0-4.73,6.1,21.06,21.06,0,0,0-1.52,6.63l0,.54H475.7Zm-24.81-.5A19.9,19.9,0,0,1,452.27,20a13,13,0,0,1,4.39-5.66,11.79,11.79,0,0,1,7-2.07,10.43,10.43,0,0,1,5.64,1.39,9.69,9.69,0,0,1,3.4,3.68,16.53,16.53,0,0,1,1.66,5.13,25.76,25.76,0,0,1,.3,3.32Z"/><path class="cls-1" d="M439.49,47.69a28.48,28.48,0,0,0,10.08,11,25.88,25.88,0,0,0,13.88,3.92,28.92,28.92,0,0,0,12.21-2.48,23.22,23.22,0,0,0,8.8-6.86,22,22,0,0,0,4.32-10.16l.1-.58H473.6l-.08.4a8.28,8.28,0,0,1-3.39,5.45,11.7,11.7,0,0,1-6.68,1.83,11.53,11.53,0,0,1-7.05-2.06,12.63,12.63,0,0,1-4.21-5.72,23,23,0,0,1-1.43-7.9h37.6l.07-.43a38.33,38.33,0,0,0-.13-12.52,29.6,29.6,0,0,0-4.24-11,23,23,0,0,0-8.34-7.73A25.22,25.22,0,0,0,463.45,0a26.51,26.51,0,0,0-24,14.48,35.21,35.21,0,0,0-3.75,16.74A34.43,34.43,0,0,0,439.49,47.69ZM440.34,15A25.5,25.5,0,0,1,463.45,1a24.22,24.22,0,0,1,11.79,2.73,22.06,22.06,0,0,1,8,7.39,28.84,28.84,0,0,1,4.1,10.59,37.37,37.37,0,0,1,.18,11.77H449.75V34a24.38,24.38,0,0,0,1.51,8.76,13.6,13.6,0,0,0,4.54,6.16,14.06,14.06,0,0,0,14.89.25,9.1,9.1,0,0,0,3.72-5.67H487.7a21,21,0,0,1-4,9.12,22.29,22.29,0,0,1-8.43,6.58,28.05,28.05,0,0,1-11.79,2.38,24.93,24.93,0,0,1-13.36-3.77,27.58,27.58,0,0,1-9.72-10.58,33.43,33.43,0,0,1-3.66-16A34.16,34.16,0,0,1,440.34,15Z"/><path class="cls-1" d="M39.12,266.05c-2-.4-4-.75-6.09-1a46.57,46.57,0,0,0-6.13-.42,21,21,0,0,0-9,1.94,15.46,15.46,0,0,0-6.72,6A19.65,19.65,0,0,0,8.64,283.1v6.58H0V300H8.64v48.84H23.92V300H34.6V289.68H23.92v-6.34a7.65,7.65,0,0,1,.89-4,4.86,4.86,0,0,1,2.22-2,10.21,10.21,0,0,1,6-.27,22.39,22.39,0,0,1,3.05.85l.52.19,3-12Zm-3.21,10.76a24.86,24.86,0,0,0-2.67-.71,11.07,11.07,0,0,0-6.59.33,5.79,5.79,0,0,0-2.7,2.39,8.67,8.67,0,0,0-1,4.52v7.34H33.6V299H22.92v48.84H9.64V299H1v-8.36H9.64V283.1a18.74,18.74,0,0,1,2.39-10,14.66,14.66,0,0,1,6.29-5.66,20.18,20.18,0,0,1,8.58-1.84,44.51,44.51,0,0,1,6,.42c1.87.25,3.72.55,5.52.91Z"/><path class="cls-1" d="M66.32,338.2a14.22,14.22,0,0,0,7.74-2.15,14.45,14.45,0,0,0,5.34-6.36,24.61,24.61,0,0,0,1.94-10.35c0-6.24-1.26-11-3.74-14.23a12.4,12.4,0,0,0-10.32-4.87,13.84,13.84,0,0,0-13.21,8.57,25.56,25.56,0,0,0-1.93,10.53c0,6.17,1.28,10.9,3.8,14.05A12.64,12.64,0,0,0,66.32,338.2ZM55,309.23a12.83,12.83,0,0,1,12.3-8,11.43,11.43,0,0,1,9.53,4.49c2.34,3,3.53,7.59,3.53,13.61a23.76,23.76,0,0,1-1.84,9.93,13.59,13.59,0,0,1-5,5.94,13.25,13.25,0,0,1-7.2,2,11.69,11.69,0,0,1-9.6-4.43c-2.38-3-3.58-7.49-3.58-13.43A24.52,24.52,0,0,1,55,309.23Z"/><path class="cls-1" d="M52.13,347.08a31,31,0,0,0,14.67,3.48,30.36,30.36,0,0,0,14.49-3.48,25.66,25.66,0,0,0,10.37-10.43c2.55-4.59,3.84-10.42,3.84-17.31s-1.29-12.91-3.84-17.52a25.18,25.18,0,0,0-10.38-10.4A30.72,30.72,0,0,0,66.8,288a31.34,31.34,0,0,0-14.66,3.42,25.09,25.09,0,0,0-10.44,10.4c-2.55,4.61-3.84,10.51-3.84,17.52s1.29,12.72,3.84,17.31A25.55,25.55,0,0,0,52.13,347.08ZM42.58,302.3a24.19,24.19,0,0,1,10-10A30.45,30.45,0,0,1,66.8,289a29.83,29.83,0,0,1,14,3.3,24.29,24.29,0,0,1,10,10c2.47,4.47,3.72,10.2,3.72,17s-1.25,12.38-3.72,16.83a24.63,24.63,0,0,1-10,10,29.33,29.33,0,0,1-14,3.36,30,30,0,0,1-14.2-3.36,24.57,24.57,0,0,1-10-10c-2.47-4.45-3.72-10.11-3.72-16.83S40.11,306.77,42.58,302.3Z"/><path class="cls-1" d="M120.46,322.82A31.43,31.43,0,0,1,122,312.19a13,13,0,0,1,4.56-6.39,12.7,12.7,0,0,1,7.54-2.16,23.88,23.88,0,0,1,3.17.24,33,33,0,0,1,3.32.59l.6.13.26-15.15-.37-.11a18.8,18.8,0,0,0-2.62-.55,19.35,19.35,0,0,0-2.8-.19,15.3,15.3,0,0,0-10,3.75,21.32,21.32,0,0,0-5.21,6.88v-9.79H105.3v59.44h15.16Zm-1,25.06H106.3V290.44h13.16v11.08l1,.19a22.11,22.11,0,0,1,5.89-8.6,14.33,14.33,0,0,1,9.37-3.51,18.85,18.85,0,0,1,2.66.18,17.49,17.49,0,0,1,2.11.42l-.22,13.16c-.88-.19-1.82-.34-2.8-.48a26,26,0,0,0-3.31-.24A13.69,13.69,0,0,0,126,305a14.09,14.09,0,0,0-4.92,6.87,32.38,32.38,0,0,0-1.62,11Z"/><path class="cls-1" d="M174.23,342.53a16.11,16.11,0,0,0,7.05,6.07,23.52,23.52,0,0,0,9.66,2,24.9,24.9,0,0,0,6.79-.92,69.35,69.35,0,0,0,6.59-2.24l.39-.15-2.24-10.93-.54.19a42.48,42.48,0,0,1-4.75,1.42,18.31,18.31,0,0,1-4.08.47c-4.27,0-6.34-2.19-6.34-6.7V300H202.6V289.68H186.76V274.2H171.6v15.48h-8.16V300h8.16v32.14A18.82,18.82,0,0,0,174.23,342.53ZM164.44,299v-8.36h8.16V275.2h13.16v15.48H201.6V299H185.76V331.7c0,5.11,2.47,7.7,7.34,7.7a19.79,19.79,0,0,0,4.31-.49,42.2,42.2,0,0,0,4.31-1.27l1.84,9c-2.07.8-4.12,1.49-6.1,2.05a24.15,24.15,0,0,1-6.52.88,22.39,22.39,0,0,1-9.25-1.88,15,15,0,0,1-6.62-5.69,17.91,17.91,0,0,1-2.47-9.81V299Z"/><path class="cls-1" d="M267.21,314.3a35.79,35.79,0,0,0-2.46-13.75,20.22,20.22,0,0,0-7.45-9.26A21.91,21.91,0,0,0,245,288a20.76,20.76,0,0,0-12.41,3.81,21.14,21.14,0,0,0-5.33,5.76v-32H212.09v83.32h15.16V322.34a31.86,31.86,0,0,1,1.83-11.55,14.76,14.76,0,0,1,5-6.82,12.15,12.15,0,0,1,7.23-2.25,10.29,10.29,0,0,1,7.8,3.14c2,2.1,3,5.27,3,9.44v34.58h15.16Zm-1,33.58H253.05V314.3c0-4.43-1.09-7.84-3.25-10.12a11.23,11.23,0,0,0-8.53-3.46,13.2,13.2,0,0,0-7.82,2.43,15.81,15.81,0,0,0-5.3,7.28,32.67,32.67,0,0,0-1.9,11.91v25.54H213.09V266.56h13.16V299.4l.94.24a20.74,20.74,0,0,1,6-7A19.71,19.71,0,0,1,245,289a20.85,20.85,0,0,1,11.76,3.13,19.1,19.1,0,0,1,7.07,8.8,34.62,34.62,0,0,1,2.39,13.37Z"/><path class="cls-1" d="M328.05,322.05a38.61,38.61,0,0,0-.12-12.52h0a29.68,29.68,0,0,0-4.25-10.95,23,23,0,0,0-8.34-7.73A25.19,25.19,0,0,0,303.07,288a26.51,26.51,0,0,0-24,14.48,35.21,35.21,0,0,0-3.75,16.74,34.43,34.43,0,0,0,3.78,16.47,28.48,28.48,0,0,0,10.08,10.95,25.88,25.88,0,0,0,13.88,3.92,28.92,28.92,0,0,0,12.21-2.48,23.22,23.22,0,0,0,8.8-6.86,22.08,22.08,0,0,0,4.33-10.16l.09-.58H313.22l-.08.4a8.28,8.28,0,0,1-3.39,5.45,11.7,11.7,0,0,1-6.68,1.83A11.55,11.55,0,0,1,296,336.1a12.7,12.7,0,0,1-4.21-5.72,23,23,0,0,1-1.43-7.9H328Zm-.93-.57H289.38v.5a24.17,24.17,0,0,0,1.5,8.76,13.67,13.67,0,0,0,4.54,6.16,14.06,14.06,0,0,0,14.89.25,9.06,9.06,0,0,0,3.72-5.67h13.29a20.89,20.89,0,0,1-4,9.12,22.38,22.38,0,0,1-8.43,6.58,28,28,0,0,1-11.79,2.38,24.89,24.89,0,0,1-13.35-3.77A27.53,27.53,0,0,1,280,335.21a33.43,33.43,0,0,1-3.66-16A34.16,34.16,0,0,1,280,303a25.5,25.5,0,0,1,23.11-14,24.19,24.19,0,0,1,11.79,2.73,22.06,22.06,0,0,1,8,7.39,28.49,28.49,0,0,1,4.1,10.59h0A37.37,37.37,0,0,1,327.12,321.48Z"/><path class="cls-1" d="M315,310.32a17.49,17.49,0,0,0-1.76-5.43,10.6,10.6,0,0,0-3.75-4.06,11.33,11.33,0,0,0-6.18-1.55,12.78,12.78,0,0,0-7.61,2.25,14,14,0,0,0-4.73,6.1,20.79,20.79,0,0,0-1.51,6.63l0,.54h25.9v-.5A27.51,27.51,0,0,0,315,310.32Zm-24.5,3.48a19.9,19.9,0,0,1,1.39-5.79,13,13,0,0,1,4.39-5.66,11.79,11.79,0,0,1,7-2.07,10.43,10.43,0,0,1,5.64,1.39,9.69,9.69,0,0,1,3.4,3.68,16.44,16.44,0,0,1,1.66,5.13,25.92,25.92,0,0,1,.3,3.32Z"/><path class="cls-1" d="M410,322.05a38.33,38.33,0,0,0-.13-12.52h0a29.6,29.6,0,0,0-4.24-10.95,23,23,0,0,0-8.34-7.73A25.22,25.22,0,0,0,385,288a26.51,26.51,0,0,0-24,14.48,35.21,35.21,0,0,0-3.75,16.74,34.43,34.43,0,0,0,3.78,16.47,28.48,28.48,0,0,0,10.08,10.95A25.88,25.88,0,0,0,385,350.56a28.92,28.92,0,0,0,12.21-2.48,23.22,23.22,0,0,0,8.8-6.86,22,22,0,0,0,4.33-10.16l.09-.58H395.18l-.08.4a8.28,8.28,0,0,1-3.39,5.45,11.7,11.7,0,0,1-6.68,1.83,11.55,11.55,0,0,1-7-2.06,12.7,12.7,0,0,1-4.21-5.72,23,23,0,0,1-1.43-7.9h37.6Zm-.93-.57H371.33v.5a24.17,24.17,0,0,0,1.5,8.76,13.67,13.67,0,0,0,4.54,6.16,14.06,14.06,0,0,0,14.89.25,9.06,9.06,0,0,0,3.72-5.67h13.29a20.89,20.89,0,0,1-4,9.12,22.29,22.29,0,0,1-8.43,6.58A28,28,0,0,1,385,349.56a24.89,24.89,0,0,1-13.35-3.77A27.53,27.53,0,0,1,362,335.21a33.43,33.43,0,0,1-3.66-16A34.16,34.16,0,0,1,361.92,303,25.5,25.5,0,0,1,385,289a24.22,24.22,0,0,1,11.79,2.73,22.06,22.06,0,0,1,8,7.39,28.66,28.66,0,0,1,4.1,10.59h0A37.37,37.37,0,0,1,409.08,321.48Z"/><path class="cls-1" d="M397,310.32a17.24,17.24,0,0,0-1.77-5.43,10.5,10.5,0,0,0-3.74-4.06,11.35,11.35,0,0,0-6.18-1.55,12.78,12.78,0,0,0-7.61,2.25,14,14,0,0,0-4.73,6.1,21.06,21.06,0,0,0-1.52,6.63l0,.54h25.9v-.5A26.07,26.07,0,0,0,397,310.32Zm-24.5,3.48a19.9,19.9,0,0,1,1.39-5.79,13.08,13.08,0,0,1,4.39-5.66,11.79,11.79,0,0,1,7-2.07,10.43,10.43,0,0,1,5.64,1.39,9.69,9.69,0,0,1,3.4,3.68,16.44,16.44,0,0,1,1.66,5.13,25.76,25.76,0,0,1,.3,3.32Z"/><path class="cls-1" d="M475.53,348.88V314.3a35.6,35.6,0,0,0-2.47-13.75,20.14,20.14,0,0,0-7.44-9.26A21.91,21.91,0,0,0,453.31,288a20.76,20.76,0,0,0-12.41,3.81,21.48,21.48,0,0,0-5.84,6.57l-1.36-8.7H420.41v59.2h15.16V322.34a31.82,31.82,0,0,1,1.83-11.55,14.75,14.75,0,0,1,5-6.82,12.2,12.2,0,0,1,7.24-2.25,10.3,10.3,0,0,1,7.8,3.14c2,2.1,3,5.27,3,9.44v34.58Zm-17.42-44.7a11.2,11.2,0,0,0-8.52-3.46,13.2,13.2,0,0,0-7.82,2.43,15.74,15.74,0,0,0-5.3,7.28,32.67,32.67,0,0,0-1.9,11.91v25.54H421.41v-57.2h11.43l1.69,10.8.7-1.35a21.05,21.05,0,0,1,6.25-7.5A19.77,19.77,0,0,1,453.31,289a20.82,20.82,0,0,1,11.75,3.13,19.11,19.11,0,0,1,7.08,8.8,34.62,34.62,0,0,1,2.39,13.37v33.58H461.37V314.3C461.37,309.87,460.28,306.46,458.11,304.18Z"/><path class="cls-1" d="M520.34,336.51a42.38,42.38,0,0,1-4.74,1.42,18.4,18.4,0,0,1-4.09.47c-4.27,0-6.34-2.19-6.34-6.7V300H521V289.68H505.17V274.2H490v15.48h-8.16V300H490v32.14a18.9,18.9,0,0,0,2.63,10.35,16.14,16.14,0,0,0,7.06,6.07,23.48,23.48,0,0,0,9.65,2,25,25,0,0,0,6.8-.92,69.18,69.18,0,0,0,6.58-2.24l.39-.15-2.24-10.93Zm-4.47,12.17a24.09,24.09,0,0,1-6.52.88,22.46,22.46,0,0,1-9.25-1.88,15.05,15.05,0,0,1-6.62-5.69,17.91,17.91,0,0,1-2.47-9.81V299h-8.16v-8.36H491V275.2h13.16v15.48H520V299H504.17V331.7c0,5.11,2.47,7.7,7.34,7.7a19.79,19.79,0,0,0,4.31-.49,43.07,43.07,0,0,0,4.32-1.27l1.84,9C519.9,347.43,517.85,348.12,515.87,348.68Z"/><path class="cls-1" d="M532.49,277.67a11,11,0,0,0,13.56,0,9.51,9.51,0,0,0,0-12.84,10.83,10.83,0,0,0-13.57,0,9.61,9.61,0,0,0,0,12.84Zm.7-12.12a9.83,9.83,0,0,1,12.17,0,8.51,8.51,0,0,1,0,11.39,10.07,10.07,0,0,1-12.19,0,8.62,8.62,0,0,1,0-11.4Z"/><path class="cls-1" d="M531.71,348.88h15.16V289.44H531.71Zm1-58.44h13.16v57.44H532.71Z"/><path class="cls-1" d="M584.24,292.35a21.18,21.18,0,0,0-5.21,6.88v-9.79H563.87v59.44H579V322.82a31.43,31.43,0,0,1,1.56-10.63,13,13,0,0,1,4.56-6.39,12.7,12.7,0,0,1,7.54-2.16,24,24,0,0,1,3.17.24,32.78,32.78,0,0,1,3.31.59l.61.13.25-15.15-.37-.11a18.37,18.37,0,0,0-2.61-.55,19.45,19.45,0,0,0-2.8-.19A15.28,15.28,0,0,0,584.24,292.35ZM599,290.2l-.22,13.16c-.89-.19-1.83-.34-2.81-.48a25.74,25.74,0,0,0-3.3-.24,13.69,13.69,0,0,0-8.12,2.34,14.09,14.09,0,0,0-4.92,6.87,32.38,32.38,0,0,0-1.62,11v25.06H564.87V290.44H578v11.08l1,.19a22.18,22.18,0,0,1,5.89-8.6,14.32,14.32,0,0,1,9.37-3.51,18.85,18.85,0,0,1,2.66.18A17.49,17.49,0,0,1,599,290.2Z"/><path class="cls-1" d="M639.43,314.3a27.4,27.4,0,0,0-.32-4,17.49,17.49,0,0,0-1.76-5.43,10.6,10.6,0,0,0-3.75-4.06,11.32,11.32,0,0,0-6.17-1.55,12.79,12.79,0,0,0-7.62,2.25,14,14,0,0,0-4.73,6.1,21.34,21.34,0,0,0-1.51,6.63l0,.54h25.9Zm-24.82-.5A19.59,19.59,0,0,1,616,308a12.94,12.94,0,0,1,4.39-5.66,11.77,11.77,0,0,1,7-2.07,10.45,10.45,0,0,1,5.64,1.39,9.66,9.66,0,0,1,3.39,3.68,16.44,16.44,0,0,1,1.66,5.13,25.76,25.76,0,0,1,.3,3.32Z"/><path class="cls-1" d="M637.26,330.88a8.33,8.33,0,0,1-3.4,5.45,13.1,13.1,0,0,1-13.73-.23,12.7,12.7,0,0,1-4.21-5.72,23,23,0,0,1-1.43-7.9H652.1l.06-.43a38.61,38.61,0,0,0-.12-12.52,29.77,29.77,0,0,0-4.24-10.95,23.11,23.11,0,0,0-8.34-7.73A25.22,25.22,0,0,0,627.19,288a26.51,26.51,0,0,0-24,14.48,35.33,35.33,0,0,0-3.75,16.74,34.43,34.43,0,0,0,3.79,16.47,28.38,28.38,0,0,0,10.07,10.95,25.89,25.89,0,0,0,13.89,3.92,28.87,28.87,0,0,0,12.2-2.48,23.22,23.22,0,0,0,8.8-6.86,22,22,0,0,0,4.33-10.16l.09-.58H637.34Zm14.17.6a20.89,20.89,0,0,1-4,9.12,22.25,22.25,0,0,1-8.42,6.58,28.08,28.08,0,0,1-11.79,2.38,24.9,24.9,0,0,1-13.36-3.77,27.43,27.43,0,0,1-9.72-10.58,33.43,33.43,0,0,1-3.67-16A34.16,34.16,0,0,1,604.08,303a25.47,25.47,0,0,1,23.11-14A24.18,24.18,0,0,1,639,291.73a22.17,22.17,0,0,1,8,7.39,28.65,28.65,0,0,1,4.09,10.59,36.79,36.79,0,0,1,.18,11.77H613.49v.5a24.39,24.39,0,0,0,1.5,8.76,13.62,13.62,0,0,0,4.55,6.16,14.06,14.06,0,0,0,14.89.25,9.14,9.14,0,0,0,3.72-5.67Z"/><path class="cls-1" d="M82.19,436.16a24.8,24.8,0,0,0-13-3.66,19.93,19.93,0,0,0-10.38,2.82,18.76,18.76,0,0,0-6.4,6.54l-1.34-7.68H39.44v86.64H53.6V487.68a15.77,15.77,0,0,0,4.08,3.62,20.5,20.5,0,0,0,10.92,2.76A25.85,25.85,0,0,0,82,490.4a27.38,27.38,0,0,0,10-10.56q3.84-6.9,3.84-16.62a33.82,33.82,0,0,0-3.78-16.53A27.31,27.31,0,0,0,82.19,436.16Zm-2.91,37.17a15.34,15.34,0,0,1-5.73,5.94,14.07,14.07,0,0,1-7,2,14.21,14.21,0,0,1-6.39-1.47,11.58,11.58,0,0,1-6.57-10.89V459a14.6,14.6,0,0,1,1.8-7.47,12.2,12.2,0,0,1,4.8-4.71,14.34,14.34,0,0,1,14.19.54,14.67,14.67,0,0,1,5.25,6.21,22.3,22.3,0,0,1,1.92,9.63A20.17,20.17,0,0,1,79.28,473.33Z"/><path class="cls-1" d="M136.52,433.1a14.75,14.75,0,0,0-9.69,3.63,22.38,22.38,0,0,0-6,8.79V433.94H106.64v58.44H120.8V466.82a31.88,31.88,0,0,1,1.59-10.8,13.52,13.52,0,0,1,4.74-6.63,13.13,13.13,0,0,1,7.83-2.25,24.75,24.75,0,0,1,3.24.24q1.8.24,3.36.6l.24-14.16a18.66,18.66,0,0,0-2.55-.54A19.76,19.76,0,0,0,136.52,433.1Z"/><path class="cls-1" d="M184.91,435.86a30.2,30.2,0,0,0-14.25-3.36,30.8,30.8,0,0,0-14.44,3.36A24.45,24.45,0,0,0,146,446.06q-3.8,6.84-3.79,17.28,0,10.26,3.79,17.07a24.87,24.87,0,0,0,10.22,10.23,30.36,30.36,0,0,0,14.44,3.42,29.77,29.77,0,0,0,14.25-3.42,25.11,25.11,0,0,0,10.17-10.23q3.76-6.81,3.77-17.07,0-10.44-3.77-17.28A24.68,24.68,0,0,0,184.91,435.86Zm-2.11,37.62a14,14,0,0,1-5.16,6.15,13.67,13.67,0,0,1-7.47,2.07,12.11,12.11,0,0,1-10-4.62q-3.69-4.62-3.68-13.74A25,25,0,0,1,158.38,453a13.34,13.34,0,0,1,12.75-8.28,11.9,11.9,0,0,1,9.94,4.68c2.41,3.12,3.63,7.76,3.63,13.92A23.93,23.93,0,0,1,182.8,473.48Z"/><path class="cls-1" d="M217.78,490.19a24.21,24.21,0,0,0,13.35,3.87,17.61,17.61,0,0,0,10-3.06,20.12,20.12,0,0,0,6.57-7.65l1.65,9H261V410.06H246.73v31a18,18,0,0,0-5.34-5.47,20.08,20.08,0,0,0-11.22-3.09,23.18,23.18,0,0,0-12.87,3.75,26.44,26.44,0,0,0-9.24,10.62,39.28,39.28,0,0,0,.12,32.46A27.34,27.34,0,0,0,217.78,490.19Zm3-36.54a14.92,14.92,0,0,1,5.13-6.21,13.28,13.28,0,0,1,19,4.41,15.25,15.25,0,0,1,1.86,7.77v7a14.81,14.81,0,0,1-1.95,7.68,14.25,14.25,0,0,1-5,5.13,12.48,12.48,0,0,1-6.45,1.83,12.65,12.65,0,0,1-7.41-2.28,15.25,15.25,0,0,1-5.13-6.36,23,23,0,0,1-1.86-9.6A21.88,21.88,0,0,1,220.75,453.65Z"/><path class="cls-1" d="M316.09,492.38h14.16V433.94H316.09v27.84A24.42,24.42,0,0,1,314,472.43a15.3,15.3,0,0,1-5.52,6.48,14,14,0,0,1-7.65,2.19,10.4,10.4,0,0,1-7.74-2.85q-2.82-2.85-2.82-8.55V433.94H276.13v37.2q0,8,2.94,13a17.23,17.23,0,0,0,8,7.14,27.69,27.69,0,0,0,11.28,2.22A18.78,18.78,0,0,0,309.55,490a21.07,21.07,0,0,0,6.54-8.08Z"/><path class="cls-1" d="M362.11,447.11a11.83,11.83,0,0,1,6.42-1.89,9.31,9.31,0,0,1,6.75,2.52,13,13,0,0,1,3.57,6.36l14.28-.36a25.82,25.82,0,0,0-2.22-7.62,24,24,0,0,0-4.8-6.87,22.64,22.64,0,0,0-7.41-4.92,25.74,25.74,0,0,0-10.05-1.83A27.18,27.18,0,0,0,355.06,436a26.61,26.61,0,0,0-10.14,10.41q-3.87,6.87-3.87,16.77a32.88,32.88,0,0,0,3.87,16.29,28.54,28.54,0,0,0,10.14,10.74,25.7,25.7,0,0,0,13.59,3.81A27.23,27.23,0,0,0,382,491a20.65,20.65,0,0,0,8.28-8.13,22.92,22.92,0,0,0,2.82-11.28H378.85a9.78,9.78,0,0,1-2.46,7q-2.46,2.61-7.86,2.61a11.71,11.71,0,0,1-6.66-2,13.62,13.62,0,0,1-4.77-6,24.68,24.68,0,0,1-1.77-10A23.92,23.92,0,0,1,357.22,453,13.57,13.57,0,0,1,362.11,447.11Z"/><path class="cls-1" d="M405,476.18a18.3,18.3,0,0,0,2.55,10.08,15.51,15.51,0,0,0,6.84,5.88,22.87,22.87,0,0,0,9.45,1.92,24.34,24.34,0,0,0,6.66-.9q3.18-.9,6.54-2.22l-2-10a43.51,43.51,0,0,1-4.8,1.44,18.8,18.8,0,0,1-4.2.48q-6.84,0-6.84-7.2V443.54H435v-9.36H419.11V418.7H405v15.48h-8.16v9.36H405Z"/><rect class="cls-1" x="469.81" y="410.06" width="14.16" height="82.32"/><rect class="cls-1" x="501.55" y="433.94" width="14.16" height="58.44"/><path class="cls-1" d="M508.63,406.94a8.86,8.86,0,0,0-6.45,2.25,9.1,9.1,0,0,0,0,12.12,10.55,10.55,0,0,0,12.87,0,9,9,0,0,0,0-12.12A8.88,8.88,0,0,0,508.63,406.94Z"/><path class="cls-1" d="M552.31,423.08a5.27,5.27,0,0,1,2.46-2.19,8.13,8.13,0,0,1,3.18-.63,15.63,15.63,0,0,1,3.12.33,22.4,22.4,0,0,1,3.12.87L567,410.54q-2.94-.6-6.06-1a45.42,45.42,0,0,0-6.06-.42A20.53,20.53,0,0,0,546,411a15,15,0,0,0-6.51,5.85,19.19,19.19,0,0,0-2.46,10.26v7.08h-8.64v9.36h8.64v48.84h14.28V443.54H562v-9.36H551.35v-6.84A8.1,8.1,0,0,1,552.31,423.08Z"/><path class="cls-1" d="M617.89,453.62a29,29,0,0,0-4.17-10.77,22.46,22.46,0,0,0-8.16-7.56,24.58,24.58,0,0,0-12-2.79A26,26,0,0,0,570,446.72a34.54,34.54,0,0,0-3.69,16.5A33.82,33.82,0,0,0,570,479.45a27.9,27.9,0,0,0,9.9,10.77,25.3,25.3,0,0,0,13.62,3.84,28.39,28.39,0,0,0,12-2.43,22.7,22.7,0,0,0,8.61-6.72,21.41,21.41,0,0,0,4.23-9.93H604.09a8.73,8.73,0,0,1-3.6,5.76,13.58,13.58,0,0,1-14.31-.24,13.1,13.1,0,0,1-4.38-5.94,23.73,23.73,0,0,1-1.47-8.58H618A37.63,37.63,0,0,0,617.89,453.62Zm-31.44-7.68a12.2,12.2,0,0,1,7.32-2.16,10.83,10.83,0,0,1,5.91,1.47,10.06,10.06,0,0,1,3.57,3.87A16.88,16.88,0,0,1,605,454.4a27.2,27.2,0,0,1,.31,3.9H580.41a20.23,20.23,0,0,1,1.48-6.48A13.48,13.48,0,0,1,586.45,445.94Z"/><path class="cls-1" d="M237.88,615.62a9.78,9.78,0,0,1-2.46,7q-2.46,2.61-7.86,2.61a11.71,11.71,0,0,1-6.66-2,13.62,13.62,0,0,1-4.77-6,24.68,24.68,0,0,1-1.77-10A23.92,23.92,0,0,1,216.25,597a13.57,13.57,0,0,1,4.89-5.85,11.83,11.83,0,0,1,6.42-1.89,9.31,9.31,0,0,1,6.75,2.52,13,13,0,0,1,3.57,6.36l14.28-.36a25.82,25.82,0,0,0-2.22-7.62,24,24,0,0,0-4.8-6.87,22.64,22.64,0,0,0-7.41-4.92,25.74,25.74,0,0,0-10-1.83A27.18,27.18,0,0,0,214.09,580,26.61,26.61,0,0,0,204,590.45q-3.87,6.87-3.87,16.77A32.88,32.88,0,0,0,204,623.51a28.54,28.54,0,0,0,10.14,10.74,25.7,25.7,0,0,0,13.59,3.81,27.23,27.23,0,0,0,13.38-3,20.65,20.65,0,0,0,8.28-8.13,22.92,22.92,0,0,0,2.82-11.28Z"/><path class="cls-1" d="M284.47,620l-14.13-41.83H254.26l23.4,58.2-1.8,5.64a30.27,30.27,0,0,1-2.64,6.33,13.18,13.18,0,0,1-3.69,4.26,8.26,8.26,0,0,1-4.95,1.53,20.83,20.83,0,0,1-6.21-1,28.1,28.1,0,0,1-6.39-3v12.48a38.89,38.89,0,0,0,8,2.91,34.92,34.92,0,0,0,8.07.93,17.35,17.35,0,0,0,12.21-4.62q5-4.62,8.43-14.94L311,578.18h-14.4Z"/><path class="cls-1" d="M333.1,591.11a11.83,11.83,0,0,1,6.42-1.89,9.31,9.31,0,0,1,6.75,2.52,13,13,0,0,1,3.57,6.36l14.28-.36a25.82,25.82,0,0,0-2.22-7.62,24,24,0,0,0-4.8-6.87,22.64,22.64,0,0,0-7.41-4.92,25.74,25.74,0,0,0-10.05-1.83A27.18,27.18,0,0,0,326.05,580a26.61,26.61,0,0,0-10.14,10.41Q312,597.32,312,607.22a32.88,32.88,0,0,0,3.87,16.29,28.54,28.54,0,0,0,10.14,10.74,25.7,25.7,0,0,0,13.59,3.81A27.23,27.23,0,0,0,353,635a20.65,20.65,0,0,0,8.28-8.13,22.92,22.92,0,0,0,2.82-11.28H349.84a9.78,9.78,0,0,1-2.46,7q-2.46,2.61-7.86,2.61a11.71,11.71,0,0,1-6.66-2,13.62,13.62,0,0,1-4.77-6,24.68,24.68,0,0,1-1.77-10A23.92,23.92,0,0,1,328.21,597,13.57,13.57,0,0,1,333.1,591.11Z"/><rect class="cls-1" x="375.1" y="554.06" width="14.16" height="82.32"/><path class="cls-1" d="M451.72,597.62a29,29,0,0,0-4.17-10.77,22.46,22.46,0,0,0-8.16-7.56,24.58,24.58,0,0,0-12-2.79,26,26,0,0,0-23.55,14.22,34.54,34.54,0,0,0-3.69,16.5,33.82,33.82,0,0,0,3.72,16.23,27.9,27.9,0,0,0,9.9,10.77,25.3,25.3,0,0,0,13.62,3.84,28.39,28.39,0,0,0,12-2.43,22.7,22.7,0,0,0,8.61-6.72A21.41,21.41,0,0,0,452.2,619H437.92a8.73,8.73,0,0,1-3.6,5.76A13.58,13.58,0,0,1,420,624.5a13.1,13.1,0,0,1-4.38-5.94,23.73,23.73,0,0,1-1.46-8.58h37.67A37.63,37.63,0,0,0,451.72,597.62Zm-31.44-7.68a12.2,12.2,0,0,1,7.32-2.16,10.83,10.83,0,0,1,5.91,1.47,10.06,10.06,0,0,1,3.57,3.87,16.88,16.88,0,0,1,1.71,5.28,24.6,24.6,0,0,1,.31,3.9H414.24a20.77,20.77,0,0,1,1.48-6.48A13.48,13.48,0,0,1,420.28,589.94Z"/></g></g></svg>