<?xml version="1.0" encoding="utf-8"?>
<!-- Generator: Adobe Illustrator 24.1.2, SVG Export Plug-In . SVG Version: 6.00 Build 0)  -->
<svg version="1.1" id="Layer_1" xmlns="http://www.w3.org/2000/svg" xmlns:xlink="http://www.w3.org/1999/xlink" x="0px" y="0px"
	 viewBox="0 0 24 24" style="enable-background:new 0 0 24 24;" xml:space="preserve">
<style type="text/css">
	.st0{fill:#E83636;}
</style>
<path class="st0" d="M6.3,3c3.2,0,5,3.5,5.7,5c0.8-1.5,2.5-5,5.7-5C19.8,3,22,4.3,22,7.2c0,3.4-4.7,7.9-10,13C6.7,15,2,10.6,2,7.2
	C2,4.5,4,3,6.3,3z M6.3,1C3.1,1,0,3.2,0,7.2c0,4.7,5.6,9.4,12,15.8c6.4-6.4,12-11.1,12-15.8c0-4-3.1-6.2-6.3-6.2
	c-2.2,0-4.4,1-5.7,3.2C10.7,2,8.5,1,6.3,1z"/>
</svg>
