<?xml version="1.0" encoding="utf-8"?>
<!-- Generator: Adobe Illustrator 24.1.2, SVG Export Plug-In . SVG Version: 6.00 Build 0)  -->
<svg version="1.1" id="i_-_x" xmlns="http://www.w3.org/2000/svg" xmlns:xlink="http://www.w3.org/1999/xlink" x="0px" y="0px"
	 viewBox="0 0 40 40" style="enable-background:new 0 0 40 40;" xml:space="preserve">
<style type="text/css">
	.st0{fill:#EDE8DE;}
	.st1{enable-background:new    ;}
</style>
<circle class="st0" cx="20" cy="20" r="20"/>
<path class="st1" d="M28.5,14.1c0.7-0.7,0.7-1.8,0-2.5s-1.8-0.7-2.5,0L20,17.5l-5.9-5.9c-0.7-0.7-1.8-0.7-2.5,0s-0.7,1.8,0,2.5
	l5.9,5.9l-5.9,5.9c-0.7,0.7-0.7,1.8,0,2.5s1.8,0.7,2.5,0l5.9-5.9l5.9,5.9c0.7,0.7,1.8,0.7,2.5,0s0.7-1.8,0-2.5L22.5,20L28.5,14.1z"
	/>
</svg>
