<?xml version="1.0" encoding="utf-8"?>
<!-- Generator: Adobe Illustrator 22.0.1, SVG Export Plug-In . SVG Version: 6.00 Build 0)  -->
<svg version="1.1" id="그룹_1" xmlns="http://www.w3.org/2000/svg" xmlns:xlink="http://www.w3.org/1999/xlink" x="0px" y="0px"
	 viewBox="0 0 20 20" style="enable-background:new 0 0 20 20;" xml:space="preserve">
<style type="text/css">
	.st0{fill:#262626;}
	.st1{fill:#FFFFFF;}
</style>
<circle class="st0" cx="10" cy="10" r="10"/>
<path class="st1" d="M14.7,6.7c0.4-0.4,0.4-1,0-1.4c-0.4-0.4-1-0.4-1.4,0L10,8.6L6.7,5.3c-0.4-0.4-1-0.4-1.4,0c-0.4,0.4-0.4,1,0,1.4
	L8.6,10l-3.3,3.3c-0.4,0.4-0.4,1,0,1.4c0.4,0.4,1,0.4,1.4,0l3.3-3.3l3.3,3.3c0.4,0.4,1,0.4,1.4,0c0.4-0.4,0.4-1,0-1.4L11.4,10
	L14.7,6.7z"/>
</svg>
